# xmcd
#
# Track frame offsets:
#	150
#	9475
#	24348
#	37309
#	55829
#	69054
#	88800
#	105219
#	117260
#	133121
#
# Disc length: 2025 seconds
#
# Revision: 0
# Processed by: cddbd v1.5.2PL0 Copyright (c) Steve Scherf et al.
# Submitted via: dBpowerAMP V4.0
#
DISCID=7907e70a
DTITLE=Current Swell - Protect Your Own
DYEAR=2009
DGENRE=Blues
TTITLE0=Nail'em Up
TTITLE1=All I Need
TTITLE2=Cursed
TTITLE3=Young And Able
TTITLE4=Red Shag
TTITLE5=Protect Your Own
TTITLE6=Way It Goes
TTITLE7=Booze In Hell
TTITLE8=Bring Me Down
TTITLE9=Wishing Well
EXTD=
EXTT0=
EXTT1=
EXTT2=
EXTT3=
EXTT4=
EXTT5=
EXTT6=
EXTT7=
EXTT8=
EXTT9=
PLAYORDER=
